<svg width="29" height="29" viewBox="0 0 29 29" fill="none" xmlns="http://www.w3.org/2000/svg">
<rect width="29" height="29" fill="#FF5349"/>
<path d="M11.7735 8.0854H8.62874C8.50959 8.0854 8.39532 8.13043 8.31107 8.21057C8.22682 8.29071 8.17949 8.3994 8.17949 8.51274V23.0422C8.17949 23.1555 8.22682 23.2642 8.31107 23.3444C8.39532 23.4245 8.50959 23.4695 8.62874 23.4695H21.2078C21.327 23.4695 21.4412 23.4245 21.5255 23.3444C21.6097 23.2642 21.6571 23.1555 21.6571 23.0422V8.51274C21.6571 8.3994 21.6097 8.29071 21.5255 8.21057C21.4412 8.13043 21.327 8.0854 21.2078 8.0854H18.063" stroke="black"/>
<path d="M11.7735 10.2221V8.08541H13.5481C13.554 8.08541 13.5597 8.08315 13.5639 8.07915C13.5682 8.07514 13.5705 8.06971 13.5705 8.06404V7.23073C13.5705 7.06237 13.6054 6.89567 13.6731 6.74013C13.7408 6.58459 13.8401 6.44326 13.9653 6.32421C14.0904 6.20517 14.239 6.11073 14.4025 6.04631C14.566 5.98188 14.7413 5.94872 14.9183 5.94872C15.0953 5.94872 15.2705 5.98188 15.434 6.04631C15.5976 6.11073 15.7461 6.20517 15.8713 6.32421C15.9964 6.44326 16.0957 6.58459 16.1634 6.74013C16.2312 6.89567 16.266 7.06237 16.266 7.23073V8.06404C16.266 8.076 16.2759 8.08541 16.2885 8.08541H18.063V10.2221C18.063 10.3354 18.0157 10.4441 17.9315 10.5243C17.8472 10.6044 17.7329 10.6494 17.6138 10.6494H12.2228C12.1036 10.6494 11.9893 10.6044 11.9051 10.5243C11.8208 10.4441 11.7735 10.3354 11.7735 10.2221Z" stroke="black"/>
</svg>
