<svg width="29" height="27" viewBox="0 0 29 27" fill="none" xmlns="http://www.w3.org/2000/svg">
<rect width="29" height="27" fill="#1BDBE8"/>
<path d="M6.08482 7.76384C7.19239 7.31117 8.78053 6.82302 10.3249 6.67131C11.9893 6.50737 13.401 6.74839 14.2195 7.59134V19.515C13.0494 18.8665 11.5663 18.7772 10.1985 18.9118C8.72171 19.0586 7.23243 19.4758 6.08482 19.904V7.76384ZM15.471 7.59134C16.2895 6.74839 17.7011 6.50737 19.3656 6.67131C20.9099 6.82302 22.4981 7.31117 23.6057 7.76384V19.904C22.4568 19.4758 20.9688 19.0574 19.492 18.913C18.1229 18.7772 16.6411 18.8653 15.471 19.515V7.59134ZM14.8452 6.48535C13.6125 5.4491 11.8254 5.29494 10.1985 5.45399C8.30371 5.64118 6.39143 6.27614 5.20002 6.80589C5.0907 6.85449 4.998 6.93282 4.93298 7.03153C4.86796 7.13024 4.83337 7.24515 4.83333 7.36255V20.8204C4.83336 20.9227 4.85966 21.0234 4.90982 21.1133C4.95998 21.2031 5.0324 21.2792 5.12044 21.3346C5.20848 21.39 5.30933 21.4229 5.41375 21.4303C5.51817 21.4377 5.62283 21.4194 5.71813 21.377C6.82195 20.8877 8.60031 20.2992 10.3236 20.1291C12.087 19.9554 13.565 20.2356 14.3572 21.2021C14.4158 21.2735 14.4901 21.3312 14.5746 21.3708C14.659 21.4104 14.7515 21.431 14.8452 21.431C14.9389 21.431 15.0314 21.4104 15.1159 21.3708C15.2004 21.3312 15.2747 21.2735 15.3333 21.2021C16.1255 20.2356 17.6035 19.9554 19.3656 20.1291C21.0902 20.2992 22.8698 20.8877 23.9723 21.377C24.0676 21.4194 24.1723 21.4377 24.2767 21.4303C24.3811 21.4229 24.482 21.39 24.57 21.3346C24.6581 21.2792 24.7305 21.2031 24.7807 21.1133C24.8308 21.0234 24.8571 20.9227 24.8571 20.8204V7.36255C24.8571 7.24515 24.8225 7.13024 24.7575 7.03153C24.6925 6.93282 24.5998 6.85449 24.4905 6.80589C23.299 6.27614 21.3868 5.64118 19.492 5.45399C17.8651 5.29372 16.078 5.4491 14.8452 6.48535Z" fill="black"/>
</svg>
