<svg width="29" height="29" viewBox="0 0 29 29" fill="none" xmlns="http://www.w3.org/2000/svg">
<path d="M15.8593 21.75C15.8593 22.0189 15.7795 22.2817 15.6302 22.5052C15.4808 22.7288 15.2685 22.903 15.0201 23.0059C14.7717 23.1088 14.4984 23.1357 14.2347 23.0833C13.971 23.0308 13.7288 22.9013 13.5387 22.7112C13.3485 22.5211 13.2191 22.2789 13.1666 22.0152C13.1142 21.7515 13.1411 21.4782 13.244 21.2298C13.3469 20.9814 13.5211 20.7691 13.7447 20.6197C13.9682 20.4704 14.231 20.3906 14.4999 20.3906C14.8603 20.391 15.2058 20.5344 15.4606 20.7892C15.7155 21.0441 15.8588 21.3896 15.8593 21.75ZM14.4999 8.60938C14.7687 8.60938 15.0316 8.52965 15.2551 8.38028C15.4787 8.23091 15.6529 8.0186 15.7558 7.77021C15.8587 7.52182 15.8856 7.24849 15.8331 6.9848C15.7807 6.72111 15.6512 6.47889 15.4611 6.28878C15.271 6.09867 15.0288 5.9692 14.7651 5.91675C14.5014 5.86429 14.2281 5.89121 13.9797 5.9941C13.7313 6.09699 13.519 6.27122 13.3696 6.49477C13.2202 6.71832 13.1405 6.98114 13.1405 7.25C13.1409 7.6104 13.2843 7.95592 13.5391 8.21076C13.794 8.4656 14.1395 8.60896 14.4999 8.60938ZM14.4999 13.1406C14.231 13.1406 13.9682 13.2204 13.7447 13.3697C13.5211 13.5191 13.3469 13.7314 13.244 13.9798C13.1411 14.2282 13.1142 14.5015 13.1666 14.7652C13.2191 15.0289 13.3485 15.2711 13.5387 15.4612C13.7288 15.6513 13.971 15.7808 14.2347 15.8333C14.4984 15.8857 14.7717 15.8588 15.0201 15.7559C15.2685 15.653 15.4808 15.4788 15.6302 15.2552C15.7795 15.0317 15.8593 14.7689 15.8593 14.5C15.8588 14.1396 15.7155 13.7941 15.4606 13.5392C15.2058 13.2844 14.8603 13.141 14.4999 13.1406Z" fill="#666666"/>
</svg>
