<svg width="27" height="28" viewBox="0 0 27 28" fill="none" xmlns="http://www.w3.org/2000/svg">
<path d="M2.80952 21.9996C3.44841 21.3406 4.07023 20.6627 4.67426 19.9666C5.18171 19.4114 5.48728 19.0074 5.48728 19.0074L9.30679 17.0435C7.77763 15.176 6.93369 12.772 6.93324 10.2822C6.93324 4.61379 11.2166 0 16.482 0C21.7475 0 26.0308 4.61379 26.0308 10.2822C26.0308 15.9507 21.7475 20.5645 16.482 20.5645C14.0771 20.5645 11.885 19.595 10.203 18.0101L8.3792 22.123C8.3792 22.123 8.00406 22.452 7.48843 22.9984C6.96052 23.5316 6.26619 24.2529 5.6005 25.0064L3.74803 27.0511L2.92411 28L0.0308234 24.8845L0.91204 23.9973C1.42904 23.4508 2.11928 22.7252 2.80952 21.9996V21.9996ZM16.482 17.6267C20.2429 17.6267 23.3026 14.332 23.3026 10.2822C23.3026 6.2325 20.2429 2.93778 16.482 2.93778C12.7212 2.93778 9.66146 6.2325 9.66146 10.2822C9.66146 14.332 12.7212 17.6267 16.482 17.6267Z" fill="black"/>
</svg>
